<?xml version="1.0" encoding="utf-8"?>
<!-- Generator: Adobe Illustrator 25.2.1, SVG Export Plug-In . SVG Version: 6.00 Build 0)  -->
<svg version="1.1" id="Camada_1" xmlns="http://www.w3.org/2000/svg" xmlns:xlink="http://www.w3.org/1999/xlink" x="0px" y="0px"
	 viewBox="0 0 1896 426.8" style="enable-background:new 0 0 1896 426.8;" xml:space="preserve">
<style type="text/css">
	.st0{fill:#FFFFFF;}
	.st1{fill:url(#path2998_2_);}
	.st2{fill:url(#rect3000_2_);}
	.st3{fill:url(#rect3000-5_2_);}
	.st4{fill:url(#path2994_2_);}
	.st5{fill:url(#path2996_2_);}
	.st6{fill:url(#SVGID_1_);}
	.st7{fill:url(#SVGID_2_);}
	.st8{fill:url(#SVGID_3_);}
	.st9{fill:url(#SVGID_4_);}
	.st10{fill:url(#SVGID_5_);}
	.st11{fill:url(#SVGID_6_);}
	.st12{fill:url(#SVGID_7_);}
	.st13{fill:url(#SVGID_8_);}
</style>
<g>
	<g>
		<path class="st0" d="M508.9,379.6l-70.4-71.5l-0.1,0.1l-59-60.2c-11.6-11.8-26.5-42.5-0.7-73.4C406.1,142,500,55.5,503.9,51.9
			l2.7-2.4h152.9L474.4,205.6L665,379.6H508.9z"/>
		<path class="st0" d="M640.5,370.1L460,205.3L633.6,58.9H510.4c0,0-97.2,89.3-124.3,121.9c-27.2,32.5,0.1,60.6,0.1,60.6l59,60.2
			c-0.1-0.1-0.1-0.3-0.3-0.5l67.9,69L640.5,370.1L640.5,370.1z"/>
		<path class="st0" d="M316,385.9c-18.6,0-32.3-10.5-32.9-10.9l-0.5-0.4L121.7,210.2v170.1H25.9V221.5l-1-113.6
			c-0.3-3.9-1.1-33.3,21.9-51.4c10.1-7.9,22.3-12,35.1-12c8.2,0,14.4,1.6,16.6,2.3c4.3,1,12.6,5,25.5,19.8
			c8.4,9.6,10.1,11.3,10.3,11.6c-0.3-0.3-2.6-2.3-6.1-2.3l0,0v7.9l6.5-5.6l140.6,143.1V48.7h95.9v228.6h-0.1v49.6
			c0,1.5-1,35.7-30.2,52C333.2,383.6,324.8,385.9,316,385.9z"/>
		<path class="st0" d="M284.9,244.4c-2.9-2.4-4.5-4.3-4.5-4.3L127.9,85c0,0,2.9,3.9-11.1-12.1S96,56.1,96,56.1S73.3,47.9,52.6,64
			c-20.4,16-18.2,43.5-18.2,43.5l1,114v149.2h76.8V186.8c0.4,0.4,0.7,0.7,0.7,0.7l176.1,179.9c0,0,22.7,17.5,47.4,3.4
			c24.7-13.9,25.3-43.9,25.3-43.9v-59h0.1V58.4h-76.9V244.4L284.9,244.4z"/>
	</g>
	<g>
		<g>
			
				<linearGradient id="path2998_2_" gradientUnits="userSpaceOnUse" x1="-761.3546" y1="207.1769" x2="-724.0501" y2="175.2611" gradientTransform="matrix(23.6032 0 0 -39.1184 18388.7832 8271.6025)">
				<stop  offset="0" style="stop-color:#272858"/>
				<stop  offset="1" style="stop-color:#0C69B2"/>
			</linearGradient>
			<path id="path2998_1_" class="st1" d="M513.6,370.1h127.6L447.1,192.9l-45.4,63.6L513.6,370.1z"/>
			
				<linearGradient id="rect3000_2_" gradientUnits="userSpaceOnUse" x1="-775.9462" y1="202.0164" x2="-775.5947" y2="239.9167" gradientTransform="matrix(23.3675 0 0 -39.1184 18205.793 8271.6025)">
				<stop  offset="0" style="stop-color:#0C69B2"/>
				<stop  offset="1" style="stop-color:#272858"/>
			</linearGradient>
			<rect id="rect3000_1_" x="36.1" y="161.1" class="st2" width="76.8" height="209.5"/>
			
				<linearGradient id="rect3000-5_2_" gradientUnits="userSpaceOnUse" x1="-765.3085" y1="204.612" x2="-765.4014" y2="242.9922" gradientTransform="matrix(23.4171 0 0 -39.1184 18245.4609 8271.6025)">
				<stop  offset="0" style="stop-color:#272858"/>
				<stop  offset="1" style="stop-color:#0C69B2"/>
			</linearGradient>
			<rect id="rect3000-5_1_" x="285.5" y="58.4" class="st3" width="76.9" height="209.5"/>
			
				<linearGradient id="path2994_2_" gradientUnits="userSpaceOnUse" x1="-777.6274" y1="205.9501" x2="-709.3113" y2="205.9501" gradientTransform="matrix(23.6032 0 0 -39.1184 18388.7832 8271.6025)">
				<stop  offset="0" style="stop-color:#0A72B9"/>
				<stop  offset="1" style="stop-color:#10458E"/>
			</linearGradient>
			<path id="path2994_1_" class="st4" d="M36.1,221.5l-1-114c0,0-2.2-27.4,18.2-43.5c20.7-16,43.3-7.9,43.3-7.9s6.8,0.8,20.8,16.9
				c14,16,11.1,12.1,11.1,12.1l152.5,155.1c0,0,18.2,22.2,42.9,9.5c24.7-12.9,38.3-43.2,38.3-43.2v120.5c0,0-0.5,30-25.3,43.9
				c-24.7,14.1-47.4-3.4-47.4-3.4L113.5,187.5c0,0-18.8-20.7-44.4-3.5C43.5,201.1,36.1,221.5,36.1,221.5L36.1,221.5z"/>
			
				<linearGradient id="path2996_2_" gradientUnits="userSpaceOnUse" x1="-761.6009" y1="204.4427" x2="-725.5254" y2="238.8325" gradientTransform="matrix(23.5885 0 0 -39.0943 18377.6543 8266.5439)">
				<stop  offset="0" style="stop-color:#0A72B9"/>
				<stop  offset="1" style="stop-color:#10458E"/>
			</linearGradient>
			<path id="path2996_1_" class="st5" d="M445.9,301.6l-59-60.2c0,0-27.3-28.1-0.1-60.6C414,148.2,511.1,58.9,511.1,58.9h123.1
				l-182,153.4C452.3,212.2,420.1,250.8,445.9,301.6L445.9,301.6z"/>
		</g>
	</g>
	<g>
		<g>
			<linearGradient id="SVGID_1_" gradientUnits="userSpaceOnUse" x1="718.7017" y1="211.9808" x2="1035.9475" y2="211.9808">
				<stop  offset="0" style="stop-color:#0A72B9"/>
				<stop  offset="1" style="stop-color:#10458E"/>
			</linearGradient>
			<path class="st6" d="M872.6,383c-29.7,0-56.5-7.1-79.7-21.2c-23.2-14-41.6-33.7-54.7-58.4c-13-24.5-19.6-52.9-19.6-84.5
				c0-25.6,4.4-49.6,13-71.1c8.7-21.7,21.2-40.7,37.2-56.7c16-16,35-28.5,56.7-37.2c21.6-8.7,45.5-13,71.1-13
				c25.9,0,50.1,4.5,72,13.3c22.5,9,40.1,21.6,52.5,37.3l7,8.9l-7.5,8.5c-18.7,21.2-37.9,38.5-57,51.4l-13,8.7l-6.8-14.1
				c-16.8-34.5-38.7-51.3-67.1-51.3c-18.2,0-32,6.8-42.2,20.8c-11,15.1-16.6,37.3-16.6,65.8c0,18.3,2.2,35.7,6.7,51.6
				c4.4,15.9,10.4,30,17.9,42.1c7.2,11.6,15.4,20.7,24.6,27.1c8.5,5.9,17.3,8.8,26.8,8.8c6.9,0,12.7-1.4,17.6-4.2
				c2.7-1.5,4.4-3.1,5.1-4.6c-0.3-5.4-0.7-12.1-1.3-19.8c-0.7-8.8-1.5-18.1-2.4-27.7c-0.5-5.5-1.1-11.1-1.6-16.7
				c-17.3-0.5-30.6-1.1-39.7-1.8l-12.1-0.9l-2.3-57.3h14.1c28.6,0,56.1-0.3,81.7-0.8c25.8-0.5,48.7-1.4,68-2.4l14.8-0.8l-2.1,65.6
				h-25.7c0.4,8.3,0.8,17.4,1,27.2c0.4,15.7,0.6,31.4,0.6,46.8v5.9l-4.3,4c-11,10.4-24,19.5-38.7,27.1
				c-14.5,7.5-29.9,13.4-45.9,17.5C904.9,381,888.6,383,872.6,383z"/>
			<linearGradient id="SVGID_2_" gradientUnits="userSpaceOnUse" x1="732.2907" y1="211.981" x2="1021.8821" y2="211.981">
				<stop  offset="0" style="stop-color:#0A72B9"/>
				<stop  offset="1" style="stop-color:#10458E"/>
			</linearGradient>
			<path class="st7" d="M872.6,369.5c-27.3,0-51.5-6.4-72.6-19.2c-21.1-12.8-37.7-30.5-49.7-53.2c-12-22.6-18-48.7-18-78.1
				c0-24,4-46,12.1-66.1c8-20,19.4-37.4,34.2-52.2c14.7-14.7,32.1-26.1,52.2-34.2c20-8,42.1-12.1,66.1-12.1
				c24.3,0,46.6,4.1,66.9,12.3c20.3,8.2,35.9,19.2,46.8,33.1c-18,20.5-36.1,36.8-54.4,49.1c-19.1-39.3-45.5-58.9-79.4-58.9
				c-22.6,0-40.4,8.8-53.2,26.4c-12.8,17.6-19.2,42.2-19.2,73.8c0,19.6,2.4,38,7.2,55.2c4.8,17.2,11.2,32.4,19.4,45.6
				c8.2,13.2,17.7,23.6,28.4,31.1c10.8,7.5,22.3,11.2,34.6,11.2c9.3,0,17.4-2,24.3-5.9c7-3.9,11-8.9,12.1-14.9
				c-0.3-6-0.8-13.4-1.4-22.3c-0.7-8.9-1.5-18.2-2.5-28c-1-9.8-1.8-19.4-2.7-28.6c-23.2-0.5-40.2-1.2-51.1-2l-1.2-31.1
				c28.6,0,56-0.3,82-0.8c26-0.5,48.9-1.4,68.5-2.5l-1.2,37.6c-9.3,0-18.3,0-27,0c0.8,11.7,1.4,25.4,1.8,41.1
				c0.4,15.7,0.6,31.2,0.6,46.4c-10.1,9.5-22,17.9-35.6,24.9c-13.6,7.1-28,12.5-42.9,16.4C902.6,367.5,887.6,369.5,872.6,369.5z"/>
			<linearGradient id="SVGID_3_" gradientUnits="userSpaceOnUse" x1="1036.9189" y1="213.4054" x2="1292.4607" y2="213.4054">
				<stop  offset="0" style="stop-color:#0A72B9"/>
				<stop  offset="1" style="stop-color:#10458E"/>
			</linearGradient>
			<path class="st8" d="M1275.1,383c-9.4-0.8-24.5-1.5-44.9-2.2c-20.7-0.7-45.8-1.2-74.5-1.4c-29.3-0.3-61.2-0.4-94.6-0.4h-12.6
				l-0.9-12.6c-0.6-7.8-1.2-19.7-1.9-35.4c-0.7-15.7-1.4-33.6-2.3-53.8c-0.8-19.8-1.6-41-2.5-63c-0.8-22-1.5-43.4-2-63.3
				c-0.5-20.3-1-38.4-1.4-54.2c-0.4-15.9-0.6-27.9-0.6-35.9V47.1h13.6c12.4,0,26.3-0.1,41.4-0.2c15.6-0.1,32.2-0.3,49.2-0.6
				c16.5-0.3,33.7-0.6,51-1c16.9-0.4,32.6-0.8,47.2-1.2c14.6-0.4,26.9-0.7,37-1l13.4-0.4l2.7,71.8l-146.6-4.9v34.8
				c0,11.7,0.1,23.2,0.2,34.4l138.2-4.5l-2.7,73.2l-134.7-5.7c0.2,14.1,0.4,27.8,0.6,40.8c0.2,11.9,0.4,23.2,0.8,33.6l143.8-4.9
				l-2.7,73L1275.1,383z"/>
			<linearGradient id="SVGID_4_" gradientUnits="userSpaceOnUse" x1="1050.5079" y1="213.0035" x2="1278.3356" y2="213.0035">
				<stop  offset="0" style="stop-color:#0A72B9"/>
				<stop  offset="1" style="stop-color:#10458E"/>
			</linearGradient>
			<path class="st9" d="M1276.3,369.5c-9.5-0.8-24.7-1.6-45.6-2.2c-20.9-0.7-45.8-1.2-74.9-1.4c-29-0.3-60.6-0.4-94.7-0.4
				c-0.5-7.6-1.2-19.3-1.8-35c-0.7-15.7-1.4-33.6-2.2-53.8c-0.8-20.2-1.6-41.2-2.5-63c-0.8-21.8-1.5-42.9-2-63.2
				c-0.5-20.3-1-38.4-1.4-54.2c-0.4-15.8-0.6-27.7-0.6-35.6c12,0,25.8-0.1,41.5-0.2c15.7-0.1,32.1-0.3,49.3-0.6
				c17.2-0.3,34.2-0.6,51.1-1c16.9-0.4,32.7-0.8,47.2-1.2c14.6-0.4,26.9-0.7,37-1l1.6,43.8l-146-4.9c0,16.1,0,32.4,0,48.9
				c0,16.5,0.1,32.7,0.4,48.5l137.4-4.5l-1.6,45l-135.4-5.7c0.3,19.4,0.5,37.8,0.8,55.2c0.3,17.5,0.7,33.3,1.2,47.4l142.8-4.9
				L1276.3,369.5z"/>
			<linearGradient id="SVGID_5_" gradientUnits="userSpaceOnUse" x1="1270.7183" y1="211.9808" x2="1557.6237" y2="211.9808">
				<stop  offset="0" style="stop-color:#0A72B9"/>
				<stop  offset="1" style="stop-color:#10458E"/>
			</linearGradient>
			<path class="st10" d="M1416.6,383c-16.1,0-32.8-2.2-49.8-6.6c-16.8-4.3-33-10.4-48.2-18c-15.4-7.8-28.7-16.9-39.4-27l-8.5-8
				l6.7-9.6c6.5-9.3,13.7-18.7,21.6-28.1c7.9-9.5,16.8-19,26.3-28.2l10-9.7l9.5,10.2c10.1,10.8,21.3,21,33.4,30.1
				c12,9.1,24.2,16.5,36.2,22c11.1,5.1,21.2,7.7,30.1,7.7c7.1,0,13.2-1.8,18.7-5.6c2.8-1.9,5.7-4.9,5.7-11.9c0-6-2.3-11.1-7.2-16
				c-6.4-6.5-15-12.7-25.6-18.4c-11.5-6.2-24-12.5-37.2-18.7c-11.8-5.5-23.7-11.4-35.3-17.4c-12.1-6.3-23.2-13.3-33.2-20.8
				c-10.7-8.1-19.4-17.3-25.8-27.5c-6.9-11-10.5-23.6-10.5-37.3c0-13.5,3.5-26.7,10.5-39.3c6.7-12.1,16.1-23.2,28.1-32.8
				c11.8-9.5,25.9-17.2,41.9-22.7c16-5.5,33.6-8.3,52.5-8.3c21.3,0,43,3.7,64.7,10.9c21.9,7.3,41.2,18.1,57.5,32l8.3,7.1l-5.1,9.6
				c-5.4,10.3-12.8,20.4-21.9,30.3c-8.8,9.5-17.5,17.7-25.9,24.3l-9.2,7.3l-8.6-8.1c-16-15.2-32-28.1-47.6-38.4
				c-14-9.2-27.1-13.9-38.7-13.9c-4.7,0-11,0.7-14.3,4c-4,4-4,6.5-4,7.4c0,1,0,3.8,4.5,7.9c5.1,4.7,12.2,9.4,20.9,14
				c9.6,5.1,20.3,10.3,31.7,15.6c12.4,5.8,25.2,12.1,37.9,18.7c13.3,6.9,25.9,14.8,37.2,23.6c12,9.3,21.9,20.1,29.2,32.1
				c7.9,12.8,11.8,27.4,11.8,43.5c0,15.9-3.9,31.1-11.7,45.2c-7.5,13.7-17.9,25.8-30.8,36.2c-12.7,10.2-27.6,18.3-44.1,24.1
				C1452.6,380.1,1435,383,1416.6,383z"/>
			<linearGradient id="SVGID_6_" gradientUnits="userSpaceOnUse" x1="1288.5618" y1="211.981" x2="1542.1581" y2="211.981">
				<stop  offset="0" style="stop-color:#0A72B9"/>
				<stop  offset="1" style="stop-color:#10458E"/>
			</linearGradient>
			<path class="st11" d="M1416.6,369.5c-15,0-30.5-2-46.4-6.1c-16-4.1-31.1-9.7-45.4-17c-14.3-7.2-26.4-15.5-36.2-24.7
				c6.3-9,13.2-18.1,20.9-27.2c7.6-9.1,16.1-18.2,25.4-27.2c10.6,11.5,22.4,22,35.2,31.7c12.8,9.7,25.7,17.5,38.7,23.5
				c12.9,6,24.9,9,35.8,9c9.8,0,18.6-2.7,26.4-8c7.8-5.3,11.7-13,11.7-23.1c0-9.5-3.7-18.1-11-25.6c-7.4-7.5-17-14.5-28.8-20.9
				c-11.9-6.4-24.5-12.7-37.8-19c-11.7-5.5-23.3-11.2-34.8-17.2c-11.5-6-21.9-12.5-31.3-19.6c-9.4-7.1-16.9-15.1-22.5-23.9
				c-5.6-8.9-8.4-18.9-8.4-30.1c0-11.2,2.9-22.1,8.8-32.7c5.9-10.6,14.1-20.2,24.7-28.8c10.6-8.6,23.2-15.4,37.8-20.5
				c14.6-5,30.6-7.6,48.1-7.6c19.9,0,40,3.4,60.3,10.2c20.3,6.8,38,16.6,53,29.5c-4.9,9.3-11.5,18.4-19.8,27.4
				c-8.3,9-16.4,16.6-24.3,22.9c-16.6-15.8-33.1-29.1-49.5-39.9c-16.4-10.8-31.8-16.2-46.2-16.2c-10.6,0-18.6,2.7-23.9,8
				c-5.3,5.3-8,11-8,17c0,6.5,3,12.5,9,18c6,5.5,13.9,10.8,23.7,16c9.8,5.2,20.6,10.5,32.3,16c12.3,5.7,24.7,11.9,37.4,18.4
				c12.7,6.5,24.4,14,35.2,22.3c10.8,8.3,19.4,17.8,26,28.4c6.5,10.6,9.8,22.8,9.8,36.4c0,13.6-3.3,26.5-10,38.7
				c-6.7,12.1-15.8,22.8-27.4,32.1c-11.6,9.3-25,16.6-40.1,21.9C1449.5,366.8,1433.5,369.5,1416.6,369.5z"/>
			<linearGradient id="SVGID_7_" gradientUnits="userSpaceOnUse" x1="1540.283" y1="212.799" x2="1871.1724" y2="212.799">
				<stop  offset="0" style="stop-color:#0A72B9"/>
				<stop  offset="1" style="stop-color:#10458E"/>
			</linearGradient>
			<path class="st12" d="M1747.1,381.8c-6.8,0-15.1-0.1-25.3-0.2c-10-0.1-20.2-0.3-30.4-0.6c-10-0.3-19.1-0.5-26.9-0.8l-13.1-0.5
				v-13.1c0-12.8,0.1-28,0.2-45.3c0.1-17.8,0.3-37.1,0.4-57.7c0.1-20.6,0.3-41.2,0.4-61.8c0.1-20.6,0.3-40.2,0.6-58.2
				c0.2-11.8,0.4-22.6,0.5-32.5c-15.6,0.2-30.9,0.3-45.8,0.4c-18.7,0.1-36.6,0.2-53.3,0.2h-14.1l2.7-68.1h13.1
				c17.1,0,36.1,0.1,56.5,0.2c20.2,0.1,40.8,0.3,61.8,0.4l61.2,0.4c19.8,0.1,38,0.3,54.6,0.4c16.7,0.1,30.8,0.3,42.4,0.4
				c12,0.1,19.9,0.4,24.3,0.6l12.3,0.8l2.2,60.2l-13.6,0.5c-14.9,0.5-31.8,1-51.7,1.4c-15.4,0.3-31.3,0.6-47.4,0.8
				c0.2,9.3,0.4,19.5,0.5,30.6c0.3,17.1,0.5,35.9,0.6,56l0.4,60.7c0.1,20.5,0.3,40.2,0.4,59.3c0.1,19.6,0.2,36.5,0.2,51.6v13.6
				H1747.1z"/>
			<linearGradient id="SVGID_8_" gradientUnits="userSpaceOnUse" x1="1554.4268" y1="212.7988" x2="1857.1069" y2="212.7988">
				<stop  offset="0" style="stop-color:#0A72B9"/>
				<stop  offset="1" style="stop-color:#10458E"/>
			</linearGradient>
			<path class="st13" d="M1747.1,368.2c-6.8,0-15.2-0.1-25.2-0.2c-10-0.1-20-0.3-30.3-0.6c-10.2-0.3-19.2-0.5-26.8-0.8
				c0-12.3,0.1-27.3,0.2-45.2c0.1-17.9,0.3-37.1,0.4-57.7c0.1-20.6,0.3-41.2,0.4-61.8c0.1-20.6,0.3-39.9,0.6-58.1
				c0.3-18.1,0.5-33.6,0.8-46.4c-20.5,0.3-40.4,0.5-59.7,0.6c-19.4,0.1-37.1,0.2-53.2,0.2l1.6-40.9c17.4,0,36.3,0.1,56.4,0.2
				c20.2,0.1,40.8,0.3,61.8,0.4c21,0.1,41.4,0.3,61.1,0.4c19.8,0.1,38,0.3,54.6,0.4c16.6,0.1,30.7,0.3,42.3,0.4
				c11.6,0.1,19.4,0.3,23.5,0.6l1.2,34.4c-15,0.5-32.2,1-51.5,1.4c-19.4,0.4-39.7,0.8-60.9,1c0.3,12.3,0.5,27,0.8,44.2
				c0.3,17.2,0.5,35.8,0.6,55.8c0.1,20,0.3,40.3,0.4,60.7c0.1,20.5,0.3,40.2,0.4,59.3C1747,335.8,1747.1,353,1747.1,368.2z"/>
		</g>
		<g>
			<path class="st0" d="M872.6,369.5c-27.3,0-51.5-6.4-72.6-19.2c-21.1-12.8-37.7-30.5-49.7-53.2c-12-22.6-18-48.7-18-78.1
				c0-24,4-46,12.1-66.1c8-20,19.4-37.4,34.2-52.2c14.7-14.7,32.1-26.1,52.2-34.2c20-8,42.1-12.1,66.1-12.1
				c24.3,0,46.6,4.1,66.9,12.3c20.3,8.2,35.9,19.2,46.8,33.1c-18,20.5-36.1,36.8-54.4,49.1c-19.1-39.3-45.5-58.9-79.4-58.9
				c-22.6,0-40.4,8.8-53.2,26.4c-12.8,17.6-19.2,42.2-19.2,73.8c0,19.6,2.4,38,7.2,55.2c4.8,17.2,11.2,32.4,19.4,45.6
				c8.2,13.2,17.7,23.6,28.4,31.1c10.8,7.5,22.3,11.2,34.6,11.2c9.3,0,17.4-2,24.3-5.9c7-3.9,11-8.9,12.1-14.9
				c-0.3-6-0.8-13.4-1.4-22.3c-0.7-8.9-1.5-18.2-2.5-28c-1-9.8-1.8-19.4-2.7-28.6c-23.2-0.5-40.2-1.2-51.1-2l-1.2-31.1
				c28.6,0,56-0.3,82-0.8c26-0.5,48.9-1.4,68.5-2.5l-1.2,37.6c-9.3,0-18.3,0-27,0c0.8,11.7,1.4,25.4,1.8,41.1
				c0.4,15.7,0.6,31.2,0.6,46.4c-10.1,9.5-22,17.9-35.6,24.9c-13.6,7.1-28,12.5-42.9,16.4C902.6,367.5,887.6,369.5,872.6,369.5z"/>
			<path class="st0" d="M1276.3,369.5c-9.5-0.8-24.7-1.6-45.6-2.2c-20.9-0.7-45.8-1.2-74.9-1.4c-29-0.3-60.6-0.4-94.7-0.4
				c-0.5-7.6-1.2-19.3-1.8-35c-0.7-15.7-1.4-33.6-2.2-53.8c-0.8-20.2-1.6-41.2-2.5-63c-0.8-21.8-1.5-42.9-2-63.2
				c-0.5-20.3-1-38.4-1.4-54.2c-0.4-15.8-0.6-27.7-0.6-35.6c12,0,25.8-0.1,41.5-0.2c15.7-0.1,32.1-0.3,49.3-0.6
				c17.2-0.3,34.2-0.6,51.1-1c16.9-0.4,32.7-0.8,47.2-1.2c14.6-0.4,26.9-0.7,37-1l1.6,43.8l-146-4.9c0,16.1,0,32.4,0,48.9
				c0,16.5,0.1,32.7,0.4,48.5l137.4-4.5l-1.6,45l-135.4-5.7c0.3,19.4,0.5,37.8,0.8,55.2c0.3,17.5,0.7,33.3,1.2,47.4l142.8-4.9
				L1276.3,369.5z"/>
			<path class="st0" d="M1416.6,369.5c-15,0-30.5-2-46.4-6.1c-16-4.1-31.1-9.7-45.4-17c-14.3-7.2-26.4-15.5-36.2-24.7
				c6.3-9,13.2-18.1,20.9-27.2c7.6-9.1,16.1-18.2,25.4-27.2c10.6,11.5,22.4,22,35.2,31.7c12.8,9.7,25.7,17.5,38.7,23.5
				c12.9,6,24.9,9,35.8,9c9.8,0,18.6-2.7,26.4-8c7.8-5.3,11.7-13,11.7-23.1c0-9.5-3.7-18.1-11-25.6c-7.4-7.5-17-14.5-28.8-20.9
				c-11.9-6.4-24.5-12.7-37.8-19c-11.7-5.5-23.3-11.2-34.8-17.2c-11.5-6-21.9-12.5-31.3-19.6c-9.4-7.1-16.9-15.1-22.5-23.9
				c-5.6-8.9-8.4-18.9-8.4-30.1c0-11.2,2.9-22.1,8.8-32.7c5.9-10.6,14.1-20.2,24.7-28.8c10.6-8.6,23.2-15.4,37.8-20.5
				c14.6-5,30.6-7.6,48.1-7.6c19.9,0,40,3.4,60.3,10.2c20.3,6.8,38,16.6,53,29.5c-4.9,9.3-11.5,18.4-19.8,27.4
				c-8.3,9-16.4,16.6-24.3,22.9c-16.6-15.8-33.1-29.1-49.5-39.9c-16.4-10.8-31.8-16.2-46.2-16.2c-10.6,0-18.6,2.7-23.9,8
				c-5.3,5.3-8,11-8,17c0,6.5,3,12.5,9,18c6,5.5,13.9,10.8,23.7,16c9.8,5.2,20.6,10.5,32.3,16c12.3,5.7,24.7,11.9,37.4,18.4
				c12.7,6.5,24.4,14,35.2,22.3c10.8,8.3,19.4,17.8,26,28.4c6.5,10.6,9.8,22.8,9.8,36.4c0,13.6-3.3,26.5-10,38.7
				c-6.7,12.1-15.8,22.8-27.4,32.1c-11.6,9.3-25,16.6-40.1,21.9C1449.5,366.8,1433.5,369.5,1416.6,369.5z"/>
			<path class="st0" d="M1747.1,368.2c-6.8,0-15.2-0.1-25.2-0.2c-10-0.1-20-0.3-30.3-0.6c-10.2-0.3-19.2-0.5-26.8-0.8
				c0-12.3,0.1-27.3,0.2-45.2c0.1-17.9,0.3-37.1,0.4-57.7c0.1-20.6,0.3-41.2,0.4-61.8c0.1-20.6,0.3-39.9,0.6-58.1
				c0.3-18.1,0.5-33.6,0.8-46.4c-20.5,0.3-40.4,0.5-59.7,0.6c-19.4,0.1-37.1,0.2-53.2,0.2l1.6-40.9c17.4,0,36.3,0.1,56.4,0.2
				c20.2,0.1,40.8,0.3,61.8,0.4c21,0.1,41.4,0.3,61.1,0.4c19.8,0.1,38,0.3,54.6,0.4c16.6,0.1,30.7,0.3,42.3,0.4
				c11.6,0.1,19.4,0.3,23.5,0.6l1.2,34.4c-15,0.5-32.2,1-51.5,1.4c-19.4,0.4-39.7,0.8-60.9,1c0.3,12.3,0.5,27,0.8,44.2
				c0.3,17.2,0.5,35.8,0.6,55.8c0.1,20,0.3,40.3,0.4,60.7c0.1,20.5,0.3,40.2,0.4,59.3C1747,335.8,1747.1,353,1747.1,368.2z"/>
		</g>
	</g>
</g>
</svg>
