<?xml version="1.0" encoding="utf-8"?>
<!-- Generator: Adobe Illustrator 25.2.1, SVG Export Plug-In . SVG Version: 6.00 Build 0)  -->
<svg version="1.1" id="Camada_1" xmlns="http://www.w3.org/2000/svg" xmlns:xlink="http://www.w3.org/1999/xlink" x="0px" y="0px"
	 viewBox="0 0 512 512" style="enable-background:new 0 0 512 512;" xml:space="preserve">
<style type="text/css">
	.st0{fill:#FFFFFF;}
	.st1{fill:url(#path2998_2_);}
	.st2{fill:url(#rect3000_2_);}
	.st3{fill:url(#rect3000-5_2_);}
	.st4{fill:url(#path2994_2_);}
	.st5{fill:url(#path2996_2_);}
</style>
<g>
	<path class="st0" d="M381.7,377l-51.8-52.6l-0.1,0.1l-43.4-44.3c-8.5-8.7-19.5-31.3-0.5-54c20.1-24.1,89.2-87.7,92.1-90.4l2-1.8
		h112.5L356.3,248.9L496.5,377H381.7z"/>
	<path class="st0" d="M478.5,370L345.7,248.7L473.4,141h-90.6c0,0-71.5,65.7-91.5,89.7c-20,23.9,0.1,44.6,0.1,44.6l43.4,44.3
		c-0.1-0.1-0.1-0.2-0.2-0.4l50,50.8H478.5z"/>
	<path class="st0" d="M239.7,381.6c-13.7,0-23.8-7.7-24.2-8l-0.4-0.3l-118.4-121v125.2H26.2V260.6L25.5,177
		c-0.2-2.9-0.8-24.5,16.1-37.8c7.4-5.8,16.4-8.8,25.8-8.8c6,0,10.6,1.2,12.2,1.7c3.2,0.7,9.3,3.7,18.8,14.6c6.2,7.1,7.4,8.3,7.6,8.5
		c-0.2-0.2-1.9-1.7-4.5-1.7c0,0,0,0,0,0l0,5.8l4.8-4.1l103.5,105.3v-127h70.6v168.2h-0.1l0,36.5c0,1.1-0.7,26.3-22.2,38.3
		C252.4,379.9,246.2,381.6,239.7,381.6z"/>
	<path class="st0" d="M216.8,277.5c-2.1-1.8-3.3-3.2-3.3-3.2L101.3,160.2c0,0,2.1,2.9-8.2-8.9s-15.3-12.4-15.3-12.4
		s-16.7-6-31.9,5.8c-15,11.8-13.4,32-13.4,32l0.7,83.9v109.8h56.5V235.1c0.3,0.3,0.5,0.5,0.5,0.5L219.8,368c0,0,16.7,12.9,34.9,2.5
		c18.2-10.2,18.6-32.3,18.6-32.3v-43.4h0.1V140.6h-56.6V277.5z"/>
</g>
<g>
	<g>
		
			<linearGradient id="path2998_2_" gradientUnits="userSpaceOnUse" x1="-521.5359" y1="556.6714" x2="-494.084" y2="580.1578" gradientTransform="matrix(23.6032 0 0 39.1184 12624.9668 -21555.4473)">
			<stop  offset="0" style="stop-color:#272858"/>
			<stop  offset="1" style="stop-color:#0C69B2"/>
		</linearGradient>
		<path id="path2998_1_" class="st1" d="M385.1,370H479L336.2,239.6l-33.4,46.8L385.1,370z"/>
		
			<linearGradient id="rect3000_2_" gradientUnits="userSpaceOnUse" x1="-532.3858" y1="560.469" x2="-532.1271" y2="532.5787" gradientTransform="matrix(23.3675 0 0 39.1184 12502.0801 -21555.4473)">
			<stop  offset="0" style="stop-color:#0C69B2"/>
			<stop  offset="1" style="stop-color:#272858"/>
		</linearGradient>
		<rect id="rect3000_1_" x="33.7" y="216.2" class="st2" width="56.5" height="154.2"/>
		
			<linearGradient id="rect3000-5_2_" gradientUnits="userSpaceOnUse" x1="-524.5468" y1="558.5589" x2="-524.6152" y2="530.3154" gradientTransform="matrix(23.4171 0 0 39.1184 12529.0996 -21555.4473)">
			<stop  offset="0" style="stop-color:#272858"/>
			<stop  offset="1" style="stop-color:#0C69B2"/>
		</linearGradient>
		<rect id="rect3000-5_1_" x="217.3" y="140.6" class="st3" width="56.6" height="154.2"/>
		
			<linearGradient id="path2994_2_" gradientUnits="userSpaceOnUse" x1="-533.5109" y1="557.5751" x2="-483.238" y2="557.5751" gradientTransform="matrix(23.6032 0 0 39.1184 12624.9668 -21555.4473)">
			<stop  offset="0" style="stop-color:#0A72B9"/>
			<stop  offset="1" style="stop-color:#10458E"/>
		</linearGradient>
		<path id="path2994_1_" class="st4" d="M33.7,260.6L33,176.7c0,0-1.6-20.2,13.4-32c15.2-11.8,31.9-5.8,31.9-5.8s5,0.6,15.3,12.4
			c10.3,11.8,8.2,8.9,8.2,8.9L214,274.3c0,0,13.4,16.3,31.6,7c18.2-9.5,28.2-31.8,28.2-31.8v88.7c0,0-0.4,22.1-18.6,32.3
			c-18.2,10.4-34.9-2.5-34.9-2.5L90.7,235.6c0,0-13.8-15.2-32.7-2.6C39.2,245.6,33.7,260.6,33.7,260.6L33.7,260.6z"/>
		
			<linearGradient id="path2996_2_" gradientUnits="userSpaceOnUse" x1="-521.7264" y1="558.6818" x2="-495.1789" y2="533.3748" gradientTransform="matrix(23.5885 0 0 39.0943 12617.5879 -21541.9727)">
			<stop  offset="0" style="stop-color:#0A72B9"/>
			<stop  offset="1" style="stop-color:#10458E"/>
		</linearGradient>
		<path id="path2996_1_" class="st5" d="M335.3,319.6l-43.4-44.3c0,0-20.1-20.7-0.1-44.6c20-24,91.5-89.7,91.5-89.7h90.6L340,253.9
			C340,253.8,316.3,282.2,335.3,319.6L335.3,319.6z"/>
	</g>
</g>
</svg>
